<svg width="252" height="439" viewBox="0 0 252 439" fill="none" xmlns="http://www.w3.org/2000/svg">
<path d="M0 396.864C0 379.584 7.296 365.376 21.888 354.24C36.864 342.72 56.064 336.96 79.488 336.96C86.4 336.96 92.736 337.536 98.496 338.688C104.64 339.84 110.4 341.376 115.776 343.296V0H133.632C135.936 11.136 139.2 21.12 143.424 29.952C148.032 38.4 155.136 47.424 164.736 57.024C174.336 66.624 187.776 78.528 205.056 92.736C220.8 105.792 232.512 120.192 240.192 135.936C247.872 151.296 251.712 167.808 251.712 185.472C251.712 199.296 249.792 212.736 245.952 225.792C242.112 238.848 237.312 250.752 231.552 261.504C226.176 272.256 220.992 281.088 216 288L203.904 282.816C208.128 273.6 211.392 263.616 213.696 252.864C216 242.112 217.152 230.784 217.152 218.88C217.152 205.056 214.656 191.808 209.664 179.136C205.056 166.08 195.648 153.216 181.44 140.544C175.296 134.784 168.768 129.216 161.856 123.84C154.944 118.08 147.456 112.128 139.392 105.984V336.384C139.392 368.256 131.904 393.408 116.928 411.84C102.336 429.888 81.408 438.912 54.144 438.912C38.784 438.912 25.92 435.456 15.552 428.544C5.184 421.632 0 411.072 0 396.864Z" fill="white"/>
</svg>
