<svg width="1024" height="1024" viewBox="0 0 1024 1024" fill="none" xmlns="http://www.w3.org/2000/svg">
<rect width="1024" height="1024" rx="224" fill="white"/>
<path transform="translate(187 187)" d="M450 0C560.457 0 650 89.5431 650 200V450C650 560.457 560.457 650 450 650H200C89.5431 650 4.02771e-06 560.457 0 450V200C0 89.5431 89.5431 4.02666e-06 200 0H450ZM314.454 97.5762V440.872C309.078 438.952 303.318 437.416 297.174 436.264C291.414 435.112 285.078 434.536 278.166 434.536C254.742 434.536 235.541 440.296 220.565 451.816C205.974 462.952 198.678 477.161 198.678 494.44C198.678 508.648 203.862 519.208 214.229 526.12C224.597 533.032 237.461 536.488 252.821 536.488C280.085 536.488 301.013 527.464 315.605 509.416C330.581 490.984 338.069 465.832 338.069 433.96V203.56C346.133 209.704 353.622 215.656 360.534 221.416C367.446 226.792 373.974 232.36 380.118 238.12C394.326 250.792 403.734 263.656 408.342 276.712C413.334 289.384 415.83 302.632 415.83 316.456C415.83 328.36 414.678 339.688 412.374 350.44C410.07 361.192 406.806 371.176 402.582 380.392L414.678 385.576C419.67 378.664 424.854 369.832 430.229 359.08C435.989 348.328 440.79 336.424 444.63 323.368C448.47 310.312 450.39 296.872 450.39 283.048C450.39 265.384 446.55 248.872 438.87 233.512C431.19 217.768 419.477 203.367 403.733 190.312C386.454 176.104 373.014 164.2 363.414 154.6C353.814 145 346.71 135.976 342.102 127.528C337.878 118.696 334.614 108.712 332.31 97.5762H314.454Z" fill="url(#paint0_linear_1_9)"/>
<defs>
<linearGradient id="paint0_linear_1_9" x1="512" y1="187" x2="512" y2="837" gradientUnits="userSpaceOnUse">
<stop stop-color="#0088FF"/>
<stop offset="1" stop-color="#005299"/>
</linearGradient>
</defs>
</svg>
